# xmcd
#
# Track frame offsets: 
#        150
#        22547
#        37602
#        54912
#        63035
#        86280
#        98972
#        118415
#        143895
#        158027
#
# Disc length: 2435 seconds
#
# Revision: 0
# Processed by: cddbd v1.5.1PL2 Copyright (c) Steve Scherf et al.
# Submitted via: ExactAudioCopy v0.95b3
#
DISCID=6a09810a
DTITLE=Sizz and the blue bag - Hold on(i`m comming)
DYEAR=1900
DGENRE=Blues
TTITLE0=Hold on(I am comming)
TTITLE1=I`m ready
TTITLE2=Don`t worry
TTITLE3=Make may day
TTITLE4=Stormy days
TTITLE5=Shuffle lover woman
TTITLE6=Fever
TTITLE7=Since i met you
TTITLE8=Good lover
TTITLE9=Time will tell
EXTD=
EXTT0=
EXTT1=
EXTT2=
EXTT3=
EXTT4=
EXTT5=
EXTT6=
EXTT7=
EXTT8=
EXTT9=
PLAYORDER=
